<mxfile host="65bd71144e" modified="2021-01-26T12:06:38.454Z" agent="5.0 (Windows NT 10.0; Win64; x64) AppleWebKit/537.36 (KHTML, like Gecko) Code/1.52.1 Chrome/83.0.4103.122 Electron/9.3.5 Safari/537.36" etag="xUv3YJzJDNiq4u61igEx" version="13.10.0" type="embed">
    <diagram id="oxUE35C-dci_7Ewnx6RE" name="Page-1">
        <mxGraphModel dx="965" dy="667" grid="1" gridSize="10" guides="1" tooltips="1" connect="1" arrows="1" fold="1" page="1" pageScale="1" pageWidth="827" pageHeight="1169" math="0" shadow="0">
            <root>
                <mxCell id="0"/>
                <mxCell id="1" parent="0"/>
                <mxCell id="fvC0eqUDQnkk70AGBvox-14" style="edgeStyle=orthogonalEdgeStyle;rounded=0;orthogonalLoop=1;jettySize=auto;html=1;" parent="1" source="fvC0eqUDQnkk70AGBvox-13" edge="1">
                    <mxGeometry relative="1" as="geometry">
                        <mxPoint x="390" y="510" as="targetPoint"/>
                    </mxGeometry>
                </mxCell>
                <mxCell id="fvC0eqUDQnkk70AGBvox-13" value="DB" style="rounded=0;whiteSpace=wrap;html=1;" parent="1" vertex="1">
                    <mxGeometry x="330" y="580" width="120" height="40" as="geometry"/>
                </mxCell>
                <mxCell id="fvC0eqUDQnkk70AGBvox-17" value="服务层" style="rounded=0;whiteSpace=wrap;html=1;dashed=1;" parent="1" vertex="1">
                    <mxGeometry x="182.5" y="315" width="455" height="210" as="geometry"/>
                </mxCell>
                <mxCell id="fvC0eqUDQnkk70AGBvox-20" value="doll" style="rounded=0;whiteSpace=wrap;html=1;" parent="1" vertex="1">
                    <mxGeometry x="182.5" y="200" width="150" height="60" as="geometry"/>
                </mxCell>
                <mxCell id="fvC0eqUDQnkk70AGBvox-22" value="settings" style="rounded=0;whiteSpace=wrap;html=1;" parent="1" vertex="1">
                    <mxGeometry x="360" y="200" width="120" height="60" as="geometry"/>
                </mxCell>
            </root>
        </mxGraphModel>
    </diagram>
</mxfile>